<svg xmlns="http://www.w3.org/2000/svg" viewBox="0 0 128 128">
  <defs>
    <linearGradient id="bg" x1="0%" y1="0%" x2="100%" y2="100%">
      <stop offset="0%" style="stop-color:#6366f1"/>
      <stop offset="100%" style="stop-color:#8b5cf6"/>
    </linearGradient>
  </defs>
  <!-- Rounded square background -->
  <rect x="4" y="4" width="120" height="120" rx="24" ry="24" fill="url(#bg)"/>
  <!-- Left quotation mark -->
  <path d="M36 72c0-11 4-20 12-27l6 5c-6 6-8 12-7 18h9c4 0 7 3 7 7v12c0 4-3 7-7 7H44c-4 0-8-4-8-8V72z" fill="white"/>
  <!-- Right quotation mark -->
  <path d="M68 72c0-11 4-20 12-27l6 5c-6 6-8 12-7 18h9c4 0 7 3 7 7v12c0 4-3 7-7 7H76c-4 0-8-4-8-8V72z" fill="white"/>
</svg>
